<svg xmlns="http://www.w3.org/2000/svg" viewBox="0 0 800 600" fill="none" aria-hidden="true">
  <defs>
    <linearGradient id="bg" x1="0%" y1="0%" x2="100%" y2="100%">
      <stop offset="0%" stop-color="#1e3a8a"/>
      <stop offset="50%" stop-color="#1d4ed8"/>
      <stop offset="100%" stop-color="#0f766e"/>
    </linearGradient>
    <pattern id="grid" width="40" height="40" patternUnits="userSpaceOnUse">
      <path d="M 40 0 L 0 0 0 40" fill="none" stroke="white" stroke-opacity="0.06" stroke-width="1"/>
    </pattern>
  </defs>
  <rect width="800" height="600" fill="url(#bg)"/>
  <rect width="800" height="600" fill="url(#grid)"/>
  <!-- Purchase workflow icons as watermarks -->
  <g opacity="0.12" stroke="white" stroke-width="2" fill="none">
    <rect x="80" y="100" width="120" height="150" rx="8"/>
    <line x1="100" y1="130" x2="180" y2="130"/>
    <line x1="100" y1="155" x2="160" y2="155"/>
    <line x1="100" y1="180" x2="170" y2="180"/>
    <circle cx="620" cy="140" r="50"/>
    <path d="M600 140 L615 155 L645 120"/>
    <rect x="500" y="280" width="180" height="120" rx="8"/>
    <polyline points="520,360 560,320 600,340 640,300 660,310"/>
    <path d="M120 380 L180 380 L200 420 L280 320 L340 380 L420 300 L480 380 L520 340"/>
    <rect x="580" y="400" width="140" height="90" rx="6"/>
    <line x1="600" y1="425" x2="700" y2="425"/>
    <line x1="600" y1="450" x2="680" y2="450"/>
    <line x1="600" y1="475" x2="660" y2="475"/>
  </g>
  <g opacity="0.25" fill="white">
    <circle cx="400" cy="300" r="120" fill="white" fill-opacity="0.05"/>
    <text x="400" y="290" text-anchor="middle" font-family="Segoe UI, Tahoma, Arial, sans-serif" font-size="28" font-weight="700" fill="white">E*'(9) 'DE4*1J'*</text>
    <text x="400" y="325" text-anchor="middle" font-family="Segoe UI, Tahoma, Arial, sans-serif" font-size="14" fill="white" fill-opacity="0.85">EF 'D7D( -*I 'DA'*H1) H'D/A9</text>
  </g>
</svg>
